General
      Complete name : Raging.Bull.1980.BDRip.H264.AAC.5.1ch.Gopo.mp4
      Format : MPEG-4
      Format profile : Base Media
      Codec ID : isom
      File size : 2.01 GiB
      Duration : 2h 9mn
      Overall bit rate : 2 224 Kbps
      Encoded date : UTC 2009-12-01 14:53:31
      Tagged date : UTC 2009-12-01 14:53:31
   Video #1
      ID : 1
      Format : AVC
      Format/Info : Advanced Video Codec
      Format profile : High@L4.1
      Format settings, CABAC : Yes
      Format settings, ReFrames : 4 frames
      Codec ID : avc1
      Codec ID/Info : Advanced Video Coding
      Duration : 2h 9mn
      Bit rate mode : Variable
      Bit rate : 1 904 Kbps
      Maximum bit rate : 5 617 Kbps
      Width : 1 280 pixels
      Height : 688 pixels
      Display aspect ratio : 1.860
      Frame rate mode : Constant
      Frame rate : 23.976 fps
      Resolution : 24 bits
      Colorimetry : 4:2:0
      Scan type : Progressive
      Bits/(Pixel*Frame) : 0.090
      Stream size : 1.72 GiB (86%)
      Writing library : x264 core 68 r1183M f21daff
      Encoding settings : cabac=1 / ref=4 / deblock=1:-1:-1 / analyse=0x3:0x113 / me=umh / subme=8 / psy_rd=1.0:0.0 / mixed_ref=1 / me_range=16 / chroma_me=1 / trellis=2 / 8x8dct=1 / cqm=0 / deadzone=21,11 / chroma_qp_offset=-2 / threads=3 / nr=0 / decimate=1 / mbaff=0 / bframes=3 / b_pyramid=0 / b_adapt=2 / b_bias=0 / direct=3 / wpredb=1 / keyint=250 / keyint_min=25 / scenecut=40 / rc=2pass / bitrate=1904 / ratetol=1.0 / qcomp=0.60 / qpmin=10 / qpmax=51 / qpstep=4 / cplxblur=20.0 / qblur=0.5 / vbv_maxrate=50000 / vbv_bufsize=50000 / ip_ratio=1.40 / pb_ratio=1.30 / aq=1:1.00
      Encoded date : UTC 2009-11-30 22:47:03
      Tagged date : UTC 2009-12-01 14:58:37
   Audio #2
      ID : 2
      Format : AAC
      Format/Info : Advanced Audio Codec
      Format version : Version 4
      Format profile : LC
      Format settings, SBR : No
      Codec ID : 40
      Duration : 2h 9mn
      Bit rate mode : Variable
      Bit rate : 317 Kbps
      Maximum bit rate : 366 Kbps
      Channel(s) : 6 channels
      Channel positions : Front: L C R, Rear: L R, LFE
      Sampling rate : 48.0 KHz
      Resolution : 16 bits
      Stream size : 293 MiB (14%)
      Encoded date : UTC 2009-12-01 14:57:53
      Tagged date : UTC 2009-12-01 14:58:37	
	Sample : YES	
	Subtitle : English,Romanian

PLOT


An emotionally self-destructive boxer's journey through life, as the violence and temper that leads him to the top in the ring, destroys his life outside it.
Director: Martin Scorsese
CASTING
      
      Robert De Niro	... 	Jake La Motta
	Cathy Moriarty	... 	Vickie La Motta
	Joe Pesci	... 	Joey
	Frank Vincent	... 	Salvy
	Nicholas Colasanto	... 	Tommy Como
	Theresa Saldana	... 	Lenore
	Mario Gallo	... 	Mario
	Frank Adonis	... 	Patsy
	Joseph Bono	... 	Guido
	Frank Topham	... 	Toppy
	Lori Anne Flax	... 	Irma
	Charles Scorsese	... 	Charlie - Man with Como
	Don Dunphy	... 	Himself - Radio Announcer for Dauthuille Fight
	Bill Hanrahan	... 	Eddie Eagan
	Rita Bennett	... 	Emma - Miss 48's

SOURCE: Raging.Bull.1980.720P.BDRip.X264-TLF.mkv

Notes: For best performance I suggest you to use KMPlayer(find it with google) for playback
I haven't tested the movies on a PS3 or Xbox or other devices than PC because I don't own one of them but feel free to test them if you have the oportunity.
